<?xml version="1.0" standalone="no"?>
<!DOCTYPE svg PUBLIC "-//W3C//DTD SVG 20010904//EN"
 "http://www.w3.org/TR/2001/REC-SVG-20010904/DTD/svg10.dtd">
<svg version="1.0" xmlns="http://www.w3.org/2000/svg"
 width="374.000000pt" height="374.000000pt" viewBox="0 0 374.000000 374.000000"
 preserveAspectRatio="xMidYMid meet">
<metadata>
Created by potrace 1.14, written by Peter Selinger 2001-2017
</metadata>
<g transform="translate(0.000000,374.000000) scale(0.100000,-0.100000)"
fill="#000000" stroke="none">
<path d="M3631 2445 c0 -5 8 -37 19 -70 10 -33 19 -51 19 -40 -1 21 -37 127
-38 110z"/>
<path d="M3670 2304 c0 -5 7 -18 15 -28 8 -11 15 -16 15 -10 0 5 -7 18 -15 28
-8 11 -15 16 -15 10z"/>
<path d="M764 2209 c-22 -44 -4 -106 57 -189 64 -88 137 -137 262 -175 66 -20
215 -18 255 3 12 7 31 17 42 22 117 59 147 79 182 124 79 100 97 167 56 206
-28 26 -60 25 -117 -1 -93 -42 -107 -48 -161 -59 -55 -12 -228 -9 -305 5 -22
4 -49 14 -60 21 -11 8 -25 14 -32 14 -7 0 -34 14 -60 30 -63 40 -98 40 -119
-1z"/>
<path d="M2118 2229 c-28 -16 -33 -71 -11 -120 34 -76 132 -180 204 -216 135
-67 258 -84 345 -48 20 8 43 15 50 15 23 0 143 78 189 123 53 51 95 125 95
166 0 37 -34 71 -70 71 -28 0 -91 -19 -100 -29 -3 -3 -21 -13 -40 -22 -113
-53 -384 -48 -488 9 -126 68 -139 72 -174 51z"/>
<path d="M3691 2184 c0 -11 3 -14 6 -6 3 7 2 16 -1 19 -3 4 -6 -2 -5 -13z"/>
<path d="M3706 2125 c8 -50 14 -58 14 -19 0 16 -5 36 -11 44 -7 11 -8 4 -3
-25z"/>
<path d="M3724 1855 c0 -60 1 -84 3 -52 2 32 2 81 0 110 -2 29 -3 3 -3 -58z"/>
<path d="M3705 1630 c-4 -23 -5 -44 -2 -46 3 -3 8 13 12 36 4 23 5 44 2 46 -3
3 -8 -13 -12 -36z"/>
<path d="M1560 1538 c-85 -4 -184 -10 -220 -13 -36 -2 -71 -4 -78 -4 -24 -2
-239 -226 -283 -296 -89 -141 -104 -180 -104 -276 0 -99 10 -117 82 -150 47
-21 174 -26 253 -8 25 5 75 13 111 18 37 5 72 12 78 15 14 9 114 22 311 41
123 12 188 12 315 4 88 -5 170 -14 183 -20 13 -5 40 -9 62 -9 21 0 51 -5 67
-11 15 -6 53 -15 83 -19 30 -5 75 -14 100 -20 25 -7 90 -13 145 -14 83 -1 106
2 130 18 56 35 65 54 65 141 0 151 -74 290 -248 465 l-108 107 -104 6 c-58 4
-150 11 -205 16 -155 15 -464 19 -635 9z"/>
<path d="M3692 1530 c0 -14 2 -19 5 -12 2 6 2 18 0 25 -3 6 -5 1 -5 -13z"/>
<path d="M3676 1464 c-4 -20 -5 -38 -3 -40 3 -3 8 11 11 32 4 20 5 38 3 40 -3
3 -8 -11 -11 -32z"/>
<path d="M3647 1348 c-10 -33 -16 -62 -14 -64 2 -2 12 23 22 56 10 33 16 62
14 64 -2 3 -12 -23 -22 -56z"/>
<path d="M3621 1263 c-1 -6 -4 -20 -7 -30 -5 -17 -5 -17 6 0 6 10 9 23 6 30
-3 9 -5 9 -5 0z"/>
</g>
</svg>
